REM DIRINDEX 1\2\4\8,1\2\4\9,1\2\4\10,1\2\5\11,1\2\5\12,1\2\5\13,1\2\5\14,1\2\5\15,1\3\6\16,1\3\6\17,1\3\6\18,1\3\7\19,1\3\7\20,1\3\7\21,1\3\7\22,1\3\7\23
REM DIRNAME "folder01","folder02","folder03","folder04","folder05","folder06","folder07","folder08","folder09","folder10","folder11","folder12","folder13","folder14","folder15","folder16","folder17","folder18","folder19","folder20","folder21","folder22","folder23"
TITLE ""
FILE "LR_black_phrase_B10.mp3" MP3
  TRACK 01 AUDIO
    TITLE "0:"
    INDEX 01 00:00:00
  TRACK 02 AUDIO
    TITLE "19:cjc171_13851"
    INDEX 01 00:00:14
  TRACK 03 AUDIO
    TITLE "0:"
    INDEX 01 00:01:37
  TRACK 04 AUDIO
    TITLE "20:cjc171_13852"
    INDEX 01 00:02:03
  TRACK 05 AUDIO
    TITLE "0:"
    INDEX 01 00:04:39
  TRACK 06 AUDIO
    TITLE "21:cjc171_13853"
    INDEX 01 00:05:37
  TRACK 07 AUDIO
    TITLE "0:"
    INDEX 01 00:07:40
  TRACK 08 AUDIO
    TITLE "22:cjc171_13854"
    INDEX 01 00:08:06
  TRACK 09 AUDIO
    TITLE "0:"
    INDEX 01 00:10:17
  TRACK 10 AUDIO
    TITLE "23:cjc171_13855"
    INDEX 01 00:10:44
  TRACK 11 AUDIO
    TITLE "0:"
    INDEX 01 00:12:55
  TRACK 12 AUDIO
    TITLE "19:cjc171_13856"
    INDEX 01 00:13:60
  TRACK 13 AUDIO
    TITLE "0:"
    INDEX 01 00:15:06
  TRACK 14 AUDIO
    TITLE "20:cjc171_13857"
    INDEX 01 00:15:45
  TRACK 15 AUDIO
    TITLE "0:"
    INDEX 01 00:17:73
  TRACK 16 AUDIO
    TITLE "21:cjc171_13858"
    INDEX 01 00:18:73
  TRACK 17 AUDIO
    TITLE "0:"
    INDEX 01 00:20:48
  TRACK 18 AUDIO
    TITLE "22:cjc171_13859"
    INDEX 01 00:21:12
  TRACK 19 AUDIO
    TITLE "0:"
    INDEX 01 00:23:19
  TRACK 20 AUDIO
    TITLE "23:cjc171_13860"
    INDEX 01 00:23:47
  TRACK 21 AUDIO
    TITLE "0:"
    INDEX 01 00:25:55
  TRACK 22 AUDIO
    TITLE "19:cjc171_13861"
    INDEX 01 00:26:57
  TRACK 23 AUDIO
    TITLE "0:"
    INDEX 01 00:28:01
  TRACK 24 AUDIO
    TITLE "20:cjc171_13862"
    INDEX 01 00:28:40
  TRACK 25 AUDIO
    TITLE "0:"
    INDEX 01 00:31:44
  TRACK 26 AUDIO
    TITLE "21:cjc171_13863"
    INDEX 01 00:32:46
  TRACK 27 AUDIO
    TITLE "0:"
    INDEX 01 00:34:05
  TRACK 28 AUDIO
    TITLE "22:cjc171_13864"
    INDEX 01 00:34:43
  TRACK 29 AUDIO
    TITLE "0:"
    INDEX 01 00:36:26
  TRACK 30 AUDIO
    TITLE "23:cjc171_13865"
    INDEX 01 00:36:55
  TRACK 31 AUDIO
    TITLE "0:"
    INDEX 01 00:38:38
  TRACK 32 AUDIO
    TITLE "19:cjc171_13866"
    INDEX 01 00:39:38
  TRACK 33 AUDIO
    TITLE "0:"
    INDEX 01 00:40:69
  TRACK 34 AUDIO
    TITLE "20:cjc171_13867"
    INDEX 01 00:41:33
  TRACK 35 AUDIO
    TITLE "0:"
    INDEX 01 00:44:45
  TRACK 36 AUDIO
    TITLE "21:cjc171_13868"
    INDEX 01 00:45:42
  TRACK 37 AUDIO
    TITLE "0:"
    INDEX 01 00:47:35
  TRACK 38 AUDIO
    TITLE "22:cjc171_13869"
    INDEX 01 00:47:71
  TRACK 39 AUDIO
    TITLE "0:"
    INDEX 01 00:49:68
  TRACK 40 AUDIO
    TITLE "23:cjc171_13870"
    INDEX 01 00:50:18
  TRACK 41 AUDIO
    TITLE "0:"
    INDEX 01 00:52:15
  TRACK 42 AUDIO
    TITLE "19:cjc171_13871"
    INDEX 01 00:53:14
  TRACK 43 AUDIO
    TITLE "0:"
    INDEX 01 00:54:41
  TRACK 44 AUDIO
    TITLE "20:cjc171_13872"
    INDEX 01 00:55:03
  TRACK 45 AUDIO
    TITLE "0:"
    INDEX 01 00:56:42
  TRACK 46 AUDIO
    TITLE "21:cjc171_13873"
    INDEX 01 00:57:42
  TRACK 47 AUDIO
    TITLE "0:"
    INDEX 01 01:00:46
  TRACK 48 AUDIO
    TITLE "22:cjc171_13874"
    INDEX 01 01:01:04
  TRACK 49 AUDIO
    TITLE "0:"
    INDEX 01 01:03:56
  TRACK 50 AUDIO
    TITLE "23:cjc171_13875"
    INDEX 01 01:04:02
  TRACK 51 AUDIO
    TITLE "0:"
    INDEX 01 01:06:54
  TRACK 52 AUDIO
    TITLE "19:cjc171_13876"
    INDEX 01 01:07:50
  TRACK 53 AUDIO
    TITLE "0:"
    INDEX 01 01:08:63
  TRACK 54 AUDIO
    TITLE "20:cjc171_13877"
    INDEX 01 01:09:25
  TRACK 55 AUDIO
    TITLE "0:"
    INDEX 01 01:11:18
  TRACK 56 AUDIO
    TITLE "21:cjc171_13878"
    INDEX 01 01:12:18
  TRACK 57 AUDIO
    TITLE "0:"
    INDEX 01 01:14:13
  TRACK 58 AUDIO
    TITLE "22:cjc171_13879"
    INDEX 01 01:14:46
  TRACK 59 AUDIO
    TITLE "0:"
    INDEX 01 01:16:47
  TRACK 60 AUDIO
    TITLE "23:cjc171_13880"
    INDEX 01 01:16:68
  TRACK 61 AUDIO
    TITLE "0:"
    INDEX 01 01:18:69
  TRACK 62 AUDIO
    TITLE "19:cjc171_13881"
    INDEX 01 01:19:71
  TRACK 63 AUDIO
    TITLE "0:"
    INDEX 01 01:21:15
  TRACK 64 AUDIO
    TITLE "20:cjc171_13882"
    INDEX 01 01:21:56
  TRACK 65 AUDIO
    TITLE "0:"
    INDEX 01 01:23:04
  TRACK 66 AUDIO
    TITLE "21:cjc171_13883"
    INDEX 01 01:24:05
  TRACK 67 AUDIO
    TITLE "0:"
    INDEX 01 01:26:49
  TRACK 68 AUDIO
    TITLE "22:cjc171_13884"
    INDEX 01 01:27:11
  TRACK 69 AUDIO
    TITLE "0:"
    INDEX 01 01:29:57
  TRACK 70 AUDIO
    TITLE "23:cjc171_13885"
    INDEX 01 01:30:12
  TRACK 71 AUDIO
    TITLE "0:"
    INDEX 01 01:32:58
  TRACK 72 AUDIO
    TITLE "19:cjc171_13886"
    INDEX 01 01:33:63
  TRACK 73 AUDIO
    TITLE "0:"
    INDEX 01 01:35:03
  TRACK 74 AUDIO
    TITLE "20:cjc171_13887"
    INDEX 01 01:35:42
  TRACK 75 AUDIO
    TITLE "0:"
    INDEX 01 01:36:63
  TRACK 76 AUDIO
    TITLE "21:cjc171_13888"
    INDEX 01 01:37:55
  TRACK 77 AUDIO
    TITLE "0:"
    INDEX 01 01:39:64
  TRACK 78 AUDIO
    TITLE "22:cjc171_13889"
    INDEX 01 01:40:26
  TRACK 79 AUDIO
    TITLE "0:"
    INDEX 01 01:42:31
  TRACK 80 AUDIO
    TITLE "23:cjc171_13890"
    INDEX 01 01:42:60
  TRACK 81 AUDIO
    TITLE "0:"
    INDEX 01 01:44:63
  TRACK 82 AUDIO
    TITLE "19:cjc171_13891"
    INDEX 01 01:45:64
  TRACK 83 AUDIO
    TITLE "0:"
    INDEX 01 01:46:69
  TRACK 84 AUDIO
    TITLE "20:cjc171_13892"
    INDEX 01 01:47:34
  TRACK 85 AUDIO
    TITLE "0:"
    INDEX 01 01:48:60
  TRACK 86 AUDIO
    TITLE "21:cjc171_13893"
    INDEX 01 01:49:58
  TRACK 87 AUDIO
    TITLE "0:"
    INDEX 01 01:52:23
  TRACK 88 AUDIO
    TITLE "22:cjc171_13894"
    INDEX 01 01:52:62
  TRACK 89 AUDIO
    TITLE "0:"
    INDEX 01 01:55:31
  TRACK 90 AUDIO
    TITLE "23:cjc171_13895"
    INDEX 01 01:55:61
  TRACK 91 AUDIO
    TITLE "0:"
    INDEX 01 01:58:30
  TRACK 92 AUDIO
    TITLE "19:cjc171_13896"
    INDEX 01 01:59:27
  TRACK 93 AUDIO
    TITLE "0:"
    INDEX 01 02:00:21
  TRACK 94 AUDIO
    TITLE "20:cjc171_13897"
    INDEX 01 02:00:58
  TRACK 95 AUDIO
    TITLE "0:"
    INDEX 01 02:04:16
  TRACK 96 AUDIO
    TITLE "21:cjc171_13898"
    INDEX 01 02:05:18
  TRACK 97 AUDIO
    TITLE "0:"
    INDEX 01 02:08:20
  TRACK 98 AUDIO
    TITLE "22:cjc171_13899"
    INDEX 01 02:08:55
  TRACK 99 AUDIO
    TITLE "0:"
    INDEX 01 02:11:18
  TRACK 100 AUDIO
    TITLE "23:cjc171_13900"
    INDEX 01 02:11:42
  TRACK 101 AUDIO
    TITLE "0:"
    INDEX 01 02:14:05
  TRACK 102 AUDIO
    TITLE "19:cjc171_13901"
    INDEX 01 02:15:04
  TRACK 103 AUDIO
    TITLE "0:"
    INDEX 01 02:16:10
  TRACK 104 AUDIO
    TITLE "20:cjc171_13902"
    INDEX 01 02:16:49
  TRACK 105 AUDIO
    TITLE "0:"
    INDEX 01 02:17:74
  TRACK 106 AUDIO
    TITLE "21:cjc171_13903"
    INDEX 01 02:18:71
  TRACK 107 AUDIO
    TITLE "0:"
    INDEX 01 02:21:17
  TRACK 108 AUDIO
    TITLE "22:cjc171_13904"
    INDEX 01 02:21:50
  TRACK 109 AUDIO
    TITLE "0:"
    INDEX 01 02:23:71
  TRACK 110 AUDIO
    TITLE "23:cjc171_13905"
    INDEX 01 02:24:15
  TRACK 111 AUDIO
    TITLE "0:"
    INDEX 01 02:26:36
  TRACK 112 AUDIO
    TITLE "19:cjc171_13906"
    INDEX 01 02:27:29
  TRACK 113 AUDIO
    TITLE "0:"
    INDEX 01 02:28:58
  TRACK 114 AUDIO
    TITLE "20:cjc171_13907"
    INDEX 01 02:29:18
  TRACK 115 AUDIO
    TITLE "0:"
    INDEX 01 02:30:35
  TRACK 116 AUDIO
    TITLE "21:cjc171_13908"
    INDEX 01 02:31:37
  TRACK 117 AUDIO
    TITLE "0:"
    INDEX 01 02:33:22
  TRACK 118 AUDIO
    TITLE "22:cjc171_13909"
    INDEX 01 02:33:55
  TRACK 119 AUDIO
    TITLE "0:"
    INDEX 01 02:35:64
  TRACK 120 AUDIO
    TITLE "23:cjc171_13910"
    INDEX 01 02:36:12
  TRACK 121 AUDIO
    TITLE "0:"
    INDEX 01 02:38:19
  TRACK 122 AUDIO
    TITLE "19:cjc171_13911"
    INDEX 01 02:39:25
  TRACK 123 AUDIO
    TITLE "0:"
    INDEX 01 02:40:44
  TRACK 124 AUDIO
    TITLE "20:cjc171_13912"
    INDEX 01 02:41:10
  TRACK 125 AUDIO
    TITLE "0:"
    INDEX 01 02:43:71
  TRACK 126 AUDIO
    TITLE "21:cjc171_13913"
    INDEX 01 02:44:73
  TRACK 127 AUDIO
    TITLE "0:"
    INDEX 01 02:46:34
  TRACK 128 AUDIO
    TITLE "22:cjc171_13914"
    INDEX 01 02:47:01
  TRACK 129 AUDIO
    TITLE "0:"
    INDEX 01 02:48:74
  TRACK 130 AUDIO
    TITLE "23:cjc171_13915"
    INDEX 01 02:49:29
  TRACK 131 AUDIO
    TITLE "0:"
    INDEX 01 02:51:30
  TRACK 132 AUDIO
    TITLE "19:cjc171_13916"
    INDEX 01 02:52:35
  TRACK 133 AUDIO
    TITLE "0:"
    INDEX 01 02:53:54
  TRACK 134 AUDIO
    TITLE "20:cjc171_13917"
    INDEX 01 02:54:24
  TRACK 135 AUDIO
    TITLE "0:"
    INDEX 01 02:55:41
  TRACK 136 AUDIO
    TITLE "21:cjc171_13918"
    INDEX 01 02:56:41
  TRACK 137 AUDIO
    TITLE "0:"
    INDEX 01 02:59:21
  TRACK 138 AUDIO
    TITLE "22:cjc171_13919"
    INDEX 01 02:59:61
  TRACK 139 AUDIO
    TITLE "0:"
    INDEX 01 03:03:00
  TRACK 140 AUDIO
    TITLE "23:cjc171_13920"
    INDEX 01 03:03:29
  TRACK 141 AUDIO
    TITLE "0:"
    INDEX 01 03:06:45
  TRACK 142 AUDIO
    TITLE "19:cjc171_13921"
    INDEX 01 03:07:50
  TRACK 143 AUDIO
    TITLE "0:"
    INDEX 01 03:09:08
  TRACK 144 AUDIO
    TITLE "20:cjc171_13922"
    INDEX 01 03:09:47
  TRACK 145 AUDIO
    TITLE "0:"
    INDEX 01 03:12:10
  TRACK 146 AUDIO
    TITLE "21:cjc171_13923"
    INDEX 01 03:13:10
  TRACK 147 AUDIO
    TITLE "0:"
    INDEX 01 03:15:03
  TRACK 148 AUDIO
    TITLE "22:cjc171_13924"
    INDEX 01 03:15:40
  TRACK 149 AUDIO
    TITLE "0:"
    INDEX 01 03:17:64
  TRACK 150 AUDIO
    TITLE "23:cjc171_13925"
    INDEX 01 03:18:21
  TRACK 151 AUDIO
    TITLE "0:"
    INDEX 01 03:20:45
  TRACK 152 AUDIO
    TITLE "19:cjc171_13926"
    INDEX 01 03:21:45
  TRACK 153 AUDIO
    TITLE "0:"
    INDEX 01 03:22:66
  TRACK 154 AUDIO
    TITLE "20:cjc171_13927"
    INDEX 01 03:23:26
  TRACK 155 AUDIO
    TITLE "0:"
    INDEX 01 03:27:47
  TRACK 156 AUDIO
    TITLE "21:cjc171_13928"
    INDEX 01 03:28:47
  TRACK 157 AUDIO
    TITLE "0:"
    INDEX 01 03:31:19
  TRACK 158 AUDIO
    TITLE "22:cjc171_13929"
    INDEX 01 03:31:53
  TRACK 159 AUDIO
    TITLE "0:"
    INDEX 01 03:34:45
  TRACK 160 AUDIO
    TITLE "23:cjc171_13930"
    INDEX 01 03:34:65
  TRACK 161 AUDIO
    TITLE "0:"
    INDEX 01 03:37:57
  TRACK 162 AUDIO
    TITLE "19:cjc171_13931"
    INDEX 01 03:38:53
  TRACK 163 AUDIO
    TITLE "0:"
    INDEX 01 03:39:62
  TRACK 164 AUDIO
    TITLE "20:cjc171_13932"
    INDEX 01 03:40:34
  TRACK 165 AUDIO
    TITLE "0:"
    INDEX 01 03:43:32
  TRACK 166 AUDIO
    TITLE "21:cjc171_13933"
    INDEX 01 03:44:30
  TRACK 167 AUDIO
    TITLE "0:"
    INDEX 01 03:46:66
  TRACK 168 AUDIO
    TITLE "22:cjc171_13934"
    INDEX 01 03:47:24
  TRACK 169 AUDIO
    TITLE "0:"
    INDEX 01 03:49:66
  TRACK 170 AUDIO
    TITLE "23:cjc171_13935"
    INDEX 01 03:50:13
  TRACK 171 AUDIO
    TITLE "0:"
    INDEX 01 03:52:53
  TRACK 172 AUDIO
    TITLE "19:cjc171_13936"
    INDEX 01 03:53:52
  TRACK 173 AUDIO
    TITLE "0:"
    INDEX 01 03:54:69
  TRACK 174 AUDIO
    TITLE "20:cjc171_13937"
    INDEX 01 03:55:30
  TRACK 175 AUDIO
    TITLE "0:"
    INDEX 01 03:57:64
  TRACK 176 AUDIO
    TITLE "21:cjc171_13938"
    INDEX 01 03:58:63
  TRACK 177 AUDIO
    TITLE "0:"
    INDEX 01 04:01:01
  TRACK 178 AUDIO
    TITLE "22:cjc171_13939"
    INDEX 01 04:01:34
  TRACK 179 AUDIO
    TITLE "0:"
    INDEX 01 04:03:66
  TRACK 180 AUDIO
    TITLE "23:cjc171_13940"
    INDEX 01 04:04:13
  TRACK 181 AUDIO
    TITLE "0:"
    INDEX 01 04:06:45
  TRACK 182 AUDIO
    TITLE "19:cjc171_13941"
    INDEX 01 04:07:47
  TRACK 183 AUDIO
    TITLE "0:"
    INDEX 01 04:08:60
  TRACK 184 AUDIO
    TITLE "20:cjc171_13942"
    INDEX 01 04:09:26
  TRACK 185 AUDIO
    TITLE "0:"
    INDEX 01 04:11:35
  TRACK 186 AUDIO
    TITLE "21:cjc171_13943"
    INDEX 01 04:12:32
  TRACK 187 AUDIO
    TITLE "0:"
    INDEX 01 04:13:73
  TRACK 188 AUDIO
    TITLE "22:cjc171_13944"
    INDEX 01 04:14:37
  TRACK 189 AUDIO
    TITLE "0:"
    INDEX 01 04:16:40
  TRACK 190 AUDIO
    TITLE "23:cjc171_13945"
    INDEX 01 04:16:69
  TRACK 191 AUDIO
    TITLE "0:"
    INDEX 01 04:18:72
  TRACK 192 AUDIO
    TITLE "19:cjc171_13946"
    INDEX 01 04:20:02
  TRACK 193 AUDIO
    TITLE "0:"
    INDEX 01 04:21:27
  TRACK 194 AUDIO
    TITLE "20:cjc171_13947"
    INDEX 01 04:21:68
  TRACK 195 AUDIO
    TITLE "0:"
    INDEX 01 04:23:04
  TRACK 196 AUDIO
    TITLE "21:cjc171_13948"
    INDEX 01 04:24:06
  TRACK 197 AUDIO
    TITLE "0:"
    INDEX 01 04:26:52
  TRACK 198 AUDIO
    TITLE "22:cjc171_13949"
    INDEX 01 04:27:20
  TRACK 199 AUDIO
    TITLE "0:"
    INDEX 01 04:29:64
  TRACK 200 AUDIO
    TITLE "23:cjc171_13950"
    INDEX 01 04:30:20
  TRACK 201 AUDIO
    TITLE "0:"
    INDEX 01 04:32:66
  TRACK 202 AUDIO
    TITLE "19:cjc171_13951"
    INDEX 01 04:33:71
  TRACK 203 AUDIO
    TITLE "0:"
    INDEX 01 04:35:15
  TRACK 204 AUDIO
    TITLE "20:cjc171_13952"
    INDEX 01 04:35:55
  TRACK 205 AUDIO
    TITLE "0:"
    INDEX 01 04:38:22
  TRACK 206 AUDIO
    TITLE "21:cjc171_13953"
    INDEX 01 04:39:23
  TRACK 207 AUDIO
    TITLE "0:"
    INDEX 01 04:41:18
  TRACK 208 AUDIO
    TITLE "22:cjc171_13954"
    INDEX 01 04:41:57
  TRACK 209 AUDIO
    TITLE "0:"
    INDEX 01 04:43:64
  TRACK 210 AUDIO
    TITLE "23:cjc171_13955"
    INDEX 01 04:44:16
  TRACK 211 AUDIO
    TITLE "0:"
    INDEX 01 04:46:23
  TRACK 212 AUDIO
    TITLE "19:cjc171_13956"
    INDEX 01 04:47:23
  TRACK 213 AUDIO
    TITLE "0:"
    INDEX 01 04:48:48
  TRACK 214 AUDIO
    TITLE "20:cjc171_13957"
    INDEX 01 04:49:12
  TRACK 215 AUDIO
    TITLE "0:"
    INDEX 01 04:51:09
  TRACK 216 AUDIO
    TITLE "21:cjc171_13958"
    INDEX 01 04:52:08
  TRACK 217 AUDIO
    TITLE "0:"
    INDEX 01 04:54:07
  TRACK 218 AUDIO
    TITLE "22:cjc171_13959"
    INDEX 01 04:54:40
  TRACK 219 AUDIO
    TITLE "0:"
    INDEX 01 04:57:35
  TRACK 220 AUDIO
    TITLE "23:cjc171_13960"
    INDEX 01 04:57:54
  TRACK 221 AUDIO
    TITLE "0:"
    INDEX 01 05:00:49
  TRACK 222 AUDIO
    TITLE "19:cjc171_13961"
    INDEX 01 05:01:44
  TRACK 223 AUDIO
    TITLE "0:"
    INDEX 01 05:02:48
  TRACK 224 AUDIO
    TITLE "20:cjc171_13962"
    INDEX 01 05:03:08
  TRACK 225 AUDIO
    TITLE "0:"
    INDEX 01 05:04:23
  TRACK 226 AUDIO
    TITLE "21:cjc171_13963"
    INDEX 01 05:05:22
  TRACK 227 AUDIO
    TITLE "0:"
    INDEX 01 05:07:08
  TRACK 228 AUDIO
    TITLE "22:cjc171_13964"
    INDEX 01 05:07:43
  TRACK 229 AUDIO
    TITLE "0:"
    INDEX 01 05:09:20
  TRACK 230 AUDIO
    TITLE "23:cjc171_13965"
    INDEX 01 05:09:40
  TRACK 231 AUDIO
    TITLE "0:"
    INDEX 01 05:11:17
  TRACK 232 AUDIO
    TITLE "19:cjc171_13966"
    INDEX 01 05:12:13
  TRACK 233 AUDIO
    TITLE "0:"
    INDEX 01 05:13:26
  TRACK 234 AUDIO
    TITLE "20:cjc171_13967"
    INDEX 01 05:13:59
  TRACK 235 AUDIO
    TITLE "0:"
    INDEX 01 05:16:24
  TRACK 236 AUDIO
    TITLE "21:cjc171_13968"
    INDEX 01 05:17:20
  TRACK 237 AUDIO
    TITLE "0:"
    INDEX 01 05:19:38
  TRACK 238 AUDIO
    TITLE "22:cjc171_13969"
    INDEX 01 05:19:72
  TRACK 239 AUDIO
    TITLE "0:"
    INDEX 01 05:22:03
  TRACK 240 AUDIO
    TITLE "23:cjc171_13970"
    INDEX 01 05:22:25
  TRACK 241 AUDIO
    TITLE "0:"
    INDEX 01 05:24:30
  TRACK 242 AUDIO
    TITLE "19:cjc171_13971"
    INDEX 01 05:25:33
  TRACK 243 AUDIO
    TITLE "0:"
    INDEX 01 05:27:20
  TRACK 244 AUDIO
    TITLE "20:cjc171_13972"
    INDEX 01 05:27:61
  TRACK 245 AUDIO
    TITLE "0:"
    INDEX 01 05:29:48
  TRACK 246 AUDIO
    TITLE "21:cjc171_13973"
    INDEX 01 05:30:48
  TRACK 247 AUDIO
    TITLE "0:"
    INDEX 01 05:32:25
  TRACK 248 AUDIO
    TITLE "22:cjc171_13974"
    INDEX 01 05:32:64
  TRACK 249 AUDIO
    TITLE "0:"
    INDEX 01 05:35:24
  TRACK 250 AUDIO
    TITLE "23:cjc171_13975"
    INDEX 01 05:35:53
  TRACK 251 AUDIO
    TITLE "0:"
    INDEX 01 05:38:10
  TRACK 252 AUDIO
    TITLE "19:cjc171_13976"
    INDEX 01 05:39:15
  TRACK 253 AUDIO
    TITLE "0:"
    INDEX 01 05:40:25
  TRACK 254 AUDIO
    TITLE "20:cjc171_13977"
    INDEX 01 05:40:64
  TRACK 255 AUDIO
    TITLE "0:"
    INDEX 01 05:42:71
  TRACK 256 AUDIO
    TITLE "21:cjc171_13978"
    INDEX 01 05:43:70
  TRACK 257 AUDIO
    TITLE "0:"
    INDEX 01 05:46:35
  TRACK 258 AUDIO
    TITLE "22:cjc171_13979"
    INDEX 01 05:46:74
  TRACK 259 AUDIO
    TITLE "0:"
    INDEX 01 05:49:43
  TRACK 260 AUDIO
    TITLE "23:cjc171_13980"
    INDEX 01 05:49:73
  TRACK 261 AUDIO
    TITLE "0:"
    INDEX 01 05:52:42
  TRACK 262 AUDIO
    TITLE "19:cjc171_13981"
    INDEX 01 05:53:39
  TRACK 263 AUDIO
    TITLE "0:"
    INDEX 01 05:54:52
  TRACK 264 AUDIO
    TITLE "20:cjc171_13982"
    INDEX 01 05:55:16
  TRACK 265 AUDIO
    TITLE "0:"
    INDEX 01 05:57:57
  TRACK 266 AUDIO
    TITLE "21:cjc171_13983"
    INDEX 01 05:58:58
  TRACK 267 AUDIO
    TITLE "0:"
    INDEX 01 06:00:53
  TRACK 268 AUDIO
    TITLE "22:cjc171_13984"
    INDEX 01 06:01:17
  TRACK 269 AUDIO
    TITLE "0:"
    INDEX 01 06:03:34
  TRACK 270 AUDIO
    TITLE "23:cjc171_13985"
    INDEX 01 06:03:65
  TRACK 271 AUDIO
    TITLE "0:"
    INDEX 01 06:06:06
  TRACK 272 AUDIO
    TITLE "19:cjc171_13986"
    INDEX 01 06:07:08
  TRACK 273 AUDIO
    TITLE "0:"
    INDEX 01 06:08:23
  TRACK 274 AUDIO
    TITLE "20:cjc171_13987"
    INDEX 01 06:08:58
  TRACK 275 AUDIO
    TITLE "0:"
    INDEX 01 06:10:26
  TRACK 276 AUDIO
    TITLE "21:cjc171_13988"
    INDEX 01 06:11:31
  TRACK 277 AUDIO
    TITLE "0:"
    INDEX 01 06:13:42
  TRACK 278 AUDIO
    TITLE "22:cjc171_13989"
    INDEX 01 06:14:00
  TRACK 279 AUDIO
    TITLE "0:"
    INDEX 01 06:16:01
  TRACK 280 AUDIO
    TITLE "23:cjc171_13990"
    INDEX 01 06:16:30
  TRACK 281 AUDIO
    TITLE "0:"
    INDEX 01 06:18:31
  TRACK 282 AUDIO
    TITLE "19:cjc171_13991"
    INDEX 01 06:19:35
  TRACK 283 AUDIO
    TITLE "0:"
    INDEX 01 06:20:40
  TRACK 284 AUDIO
    TITLE "20:cjc171_13992"
    INDEX 01 06:21:04
  TRACK 285 AUDIO
    TITLE "0:"
    INDEX 01 06:23:13
  TRACK 286 AUDIO
    TITLE "21:cjc171_13993"
    INDEX 01 06:24:12
  TRACK 287 AUDIO
    TITLE "0:"
    INDEX 01 06:25:45
  TRACK 288 AUDIO
    TITLE "22:cjc171_13994"
    INDEX 01 06:26:11
  TRACK 289 AUDIO
    TITLE "0:"
    INDEX 01 06:27:69
  TRACK 290 AUDIO
    TITLE "23:cjc171_13995"
    INDEX 01 06:28:20
  TRACK 291 AUDIO
    TITLE "0:"
    INDEX 01 06:30:05
  TRACK 292 AUDIO
    TITLE "19:cjc171_13996"
    INDEX 01 06:31:01
  TRACK 293 AUDIO
    TITLE "0:"
    INDEX 01 06:32:16
  TRACK 294 AUDIO
    TITLE "20:cjc171_13997"
    INDEX 01 06:32:53
  TRACK 295 AUDIO
    TITLE "0:"
    INDEX 01 06:35:20
  TRACK 296 AUDIO
    TITLE "21:cjc171_13998"
    INDEX 01 06:36:19
  TRACK 297 AUDIO
    TITLE "0:"
    INDEX 01 06:38:10
  TRACK 298 AUDIO
    TITLE "22:cjc171_13999"
    INDEX 01 06:38:46
  TRACK 299 AUDIO
    TITLE "0:"
    INDEX 01 06:40:60
  TRACK 300 AUDIO
    TITLE "23:cjc171_14000"
    INDEX 01 06:41:07
  TRACK 301 AUDIO
    TITLE "0:"
    INDEX 01 06:43:23
